# xmcd CD database file
#
# Track frame offsets:
#	150
#	24033
#	33635
#	41263
#	62260
#	74313
#	84698
#	104890
#	120406
#	129294
#	145750
#	158180
#	172168
#	184504
#	205208
#	220835
#	246498
#
# Disc length: 3511 seconds
#
# Revision: 2
# Processed by: cddbd v1.5.2PL0 Copyright (c) Steve Scherf et al.
# Submitted via: CDex 1.70beta2
#
DISCID=ec0db511
DTITLE=Arico - bitter and sweet
DYEAR=2007
DGENRE=Jazz
TTITLE0=Letters
TTITLE1=日々の泡
TTITLE2=ジャングルジムの住人
TTITLE3=冷静と情熱のあいだ
TTITLE4=漂う風に
TTITLE5=木漏れ日の家
TTITLE6=Twilight Promenade
TTITLE7=輪舞
TTITLE8=予感
TTITLE9=旅人たち
TTITLE10=gondola
TTITLE11=Silent Sliding
TTITLE12=ほとけのテーマ
TTITLE13=BARCAROLLE
TTITLE14=waltz
TTITLE15=tsuki ni yurete
TTITLE16=ピータース　レストラン
EXTD=YEAR: 2007
EXTT0=
EXTT1=
EXTT2=
EXTT3=
EXTT4=
EXTT5=
EXTT6=
EXTT7=
EXTT8=
EXTT9=
EXTT10=
EXTT11=
EXTT12=
EXTT13=
EXTT14=
EXTT15=
EXTT16=
PLAYORDER=
